M48
; DRILL file {KiCad (5.1.10)-1} date 10/09/21 22:27:21
; FORMAT={-:-/ absolute / inch / decimal}
; #@! TF.CreationDate,2021-10-09T22:27:21+01:00
; #@! TF.GenerationSoftware,Kicad,Pcbnew,(5.1.10)-1
; #@! TF.FileFunction,Plated,1,2,PTH
FMAT,2
INCH
T1C0.0118
T2C0.0276
T3C0.0315
T4C0.0394
T5C0.0598
%
G90
G05
T1
X5.465Y-3.535
X6.1305Y-3.2658
T2
X5.235Y-3.6
X5.235Y-3.73
X5.24Y-3.475
X5.245Y-3.235
X5.245Y-3.35
X5.535Y-3.6
X5.535Y-3.73
X5.54Y-3.475
X5.545Y-3.235
X5.545Y-3.35
T3
X3.74Y-4.335
X3.8384Y-4.335
X3.989Y-4.0516
X3.9902Y-3.9472
X4.089Y-4.0516
X4.0902Y-3.9472
X4.1816Y-2.4
X4.189Y-4.0516
X4.1902Y-3.9472
X4.205Y-4.345
X4.28Y-2.4
X4.289Y-4.0516
X4.2902Y-3.9472
X4.3034Y-4.345
X4.389Y-4.0516
X4.3902Y-3.9472
X4.489Y-4.0516
X4.4902Y-3.9472
X4.4976Y-2.7413
X4.4988Y-2.637
X4.589Y-4.0516
X4.5902Y-3.9472
X4.5976Y-2.7413
X4.5988Y-2.637
X4.6016Y-2.4
X4.63Y-4.345
X4.689Y-4.0516
X4.6902Y-3.9472
X4.6976Y-2.7413
X4.6988Y-2.637
X4.7Y-2.4
X4.7284Y-4.345
X4.789Y-4.0516
X4.7902Y-3.9472
X4.7976Y-2.7413
X4.7988Y-2.637
X4.889Y-4.0516
X4.8902Y-3.9472
X4.8976Y-2.7413
X4.8988Y-2.637
X4.989Y-4.0516
X4.9902Y-3.9472
X4.9976Y-2.7413
X4.9988Y-2.637
X5.0016Y-2.4
X5.06Y-4.345
X5.089Y-4.0516
X5.0902Y-3.9472
X5.0976Y-2.7413
X5.0988Y-2.637
X5.1Y-2.4
X5.1584Y-4.345
X5.189Y-4.0516
X5.1902Y-3.9472
X5.1976Y-2.7413
X5.1988Y-2.637
X5.289Y-4.0516
X5.2902Y-3.9472
X5.2976Y-2.7413
X5.2988Y-2.637
X5.389Y-4.0516
X5.3902Y-3.9472
X5.3976Y-2.7413
X5.3988Y-2.637
X5.4516Y-2.4
X5.485Y-4.345
X5.489Y-4.0516
X5.4902Y-3.9472
X5.4976Y-2.7413
X5.4988Y-2.637
X5.55Y-2.4
X5.5834Y-4.345
X5.589Y-4.0516
X5.5902Y-3.9472
X5.5976Y-2.7413
X5.5988Y-2.637
X5.689Y-4.0516
X5.6902Y-3.9472
X5.6976Y-2.7413
X5.6988Y-2.637
X5.755Y-2.395
X5.789Y-4.0516
X5.7902Y-3.9472
X5.7976Y-2.7413
X5.7988Y-2.637
X5.8518Y-2.8523
X5.8518Y-2.9523
X5.8518Y-3.0523
X5.8518Y-3.3523
X5.8518Y-3.4523
X5.8518Y-3.5523
X5.8534Y-2.395
X5.889Y-4.0516
X5.8902Y-3.9472
X5.8976Y-2.7413
X5.8988Y-2.637
X5.9Y-4.335
X5.9766Y-2.4
X5.989Y-4.0516
X5.9902Y-3.9472
X5.9924Y-2.8523
X5.9924Y-2.9523
X5.9924Y-3.0523
X5.9924Y-3.3523
X5.9924Y-3.4523
X5.9924Y-3.5523
X5.9976Y-2.7413
X5.9984Y-4.335
X5.9988Y-2.637
X6.075Y-2.4
X6.205Y-2.4
X6.3034Y-2.4
X6.33Y-4.335
X6.4284Y-4.335
X6.45Y-2.4
X6.5484Y-2.4
X6.6216Y-4.335
X6.675Y-2.4
X6.72Y-4.335
X6.7734Y-2.4
T4
X6.23Y-2.635
X6.23Y-2.735
X6.23Y-2.835
X6.23Y-3.05
X6.23Y-3.15
X6.23Y-3.25
X6.23Y-3.445
X6.23Y-3.545
X6.23Y-3.645
X6.23Y-3.855
X6.23Y-3.955
X6.23Y-4.055
X6.47Y-3.445
X6.47Y-3.545
X6.47Y-3.645
X6.475Y-3.05
X6.475Y-3.15
X6.475Y-3.25
X6.475Y-3.86
X6.475Y-3.96
X6.475Y-4.06
X6.48Y-2.635
X6.48Y-2.735
X6.48Y-2.835
X6.7Y-2.64
X6.7Y-2.74
X6.7Y-2.84
X6.71Y-3.05
X6.71Y-3.15
X6.71Y-3.25
X6.71Y-3.445
X6.71Y-3.545
X6.71Y-3.645
T5
X3.69Y-4.585
X3.705Y-2.155
X3.89Y-4.585
X3.905Y-2.155
X4.1204Y-4.5852
X4.13Y-2.155
X4.3204Y-4.5852
X4.33Y-2.155
X4.5501Y-4.5852
X4.56Y-2.155
X4.7501Y-4.5852
X4.76Y-2.155
X4.9848Y-4.5852
X4.985Y-2.155
X5.1848Y-4.5852
X5.185Y-2.155
X5.41Y-2.155
X5.4193Y-4.5852
X5.61Y-2.155
X5.6193Y-4.5852
X5.845Y-2.155
X5.85Y-4.585
X6.045Y-2.155
X6.05Y-4.585
X6.2755Y-2.1548
X6.28Y-4.585
X6.4755Y-2.1548
X6.48Y-4.585
X6.8Y-3.875
X6.8Y-4.075
T0
M30
